<svg xmlns="http://www.w3.org/2000/svg" width="156" height="77" viewBox="0 0 156 77">
    <g fill="#ffcccc">
        <path fill="#ffffff" d="M12.722 47.117h4.506l12.6 27.19h-5.951l-2.725-6.22H8.467l-2.64 6.22H0l12.722-27.19zm6.612 16.82l-4.506-11.062L10.23 63.94l9.104-.005zM32.898 47.117L38.129 47.117 38.129 74.307 32.898 74.307zM44.55 47.117L52.687 47.117 60.29 66.431 60.411 66.431 67.929 47.117 76.113 47.117 76.113 74.307 70.947 74.307 70.947 52.46 70.863 52.46 61.982 74.311 58.346 74.311 49.59 52.46 49.507 52.46 49.507 74.311 44.55 74.311zM82.558 47.117L90.695 47.117 98.293 66.431 98.418 66.431 105.937 47.117 114.116 47.117 114.116 74.307 108.955 74.307 108.955 52.46 108.871 52.46 99.971 74.311 96.335 74.311 87.575 52.46 87.496 52.46 87.496 74.311 82.558 74.311zM135.473 52.806a6.254 6.254 0 00-2.325-1.673 7.37 7.37 0 00-3.037-.67 8.18 8.18 0 00-1.818.207 5.747 5.747 0 00-1.65.657 3.693 3.693 0 00-1.219 1.15 3.004 3.004 0 00-.465 1.708c-.019.55.124 1.096.414 1.577.285.444.673.824 1.135 1.111.546.339 1.137.61 1.757.809.689.23 1.445.46 2.27.691.93.288 1.901.608 2.915.96.998.348 1.937.827 2.79 1.422a7.22 7.22 0 012.064 2.226 6.37 6.37 0 01.805 3.342 8.055 8.055 0 01-.865 3.82 8.059 8.059 0 01-2.325 2.707 10.14 10.14 0 01-3.385 1.612 15.283 15.283 0 01-4.092.54 16.375 16.375 0 01-5.58-.98 10.79 10.79 0 01-4.463-2.901l3.72-3.225a7.433 7.433 0 002.868 2.192 8.614 8.614 0 003.534.804 8.473 8.473 0 001.86-.212 5.061 5.061 0 001.711-.71c.507-.326.93-.753 1.242-1.248.332-.571.493-1.215.465-1.863a2.906 2.906 0 00-.535-1.786 4.745 4.745 0 00-1.446-1.227 10.873 10.873 0 00-2.148-.904l-2.604-.808c-.9-.261-1.783-.569-2.646-.92a8.91 8.91 0 01-2.376-1.423 6.858 6.858 0 01-1.711-2.161 6.97 6.97 0 01-.66-3.208 6.655 6.655 0 01.93-3.575 7.887 7.887 0 012.44-2.476 11.247 11.247 0 013.428-1.457c1.273-.32 2.587-.48 3.906-.48 1.54.008 3.07.255 4.524.73 1.48.46 2.837 1.205 3.985 2.188l-3.413 3.454z" transform="translate(0 .857)"/>
        <path fill="#71F1FF" d="M134.324 10.201L126.959 0 126.954 0 131.73 12.32z" transform="translate(0 .857)"/>
        <path fill="#00E700" d="M131.73 12.32L126.954 0 119.589 10.201 126.959 16.223z" transform="translate(0 .857)"/>
        <path fill="#15C2FF" d="M136.152 23.74L155.56 39.609 142.252 21.181 136.152 23.74z" transform="translate(0 .857)"/>
        <path fill="#68E2FF" d="M136.152 23.74L142.252 21.181 134.324 10.201 131.73 12.32z" transform="translate(0 .857)"/>
        <path fill="#FFE600" d="M117.762 23.74L98.353 39.609 111.661 21.181 117.762 23.74z" transform="translate(0 .857)"/>
        <path fill="#00D400" d="M117.762 23.74L111.661 21.181 119.589 10.201 126.959 16.223zM126.959 16.223L136.152 23.74 131.73 12.32z" transform="translate(0 .857)"/>
        <path fill="#004BFF" d="M136.152 23.74L139.723 32.96 155.56 39.609z" transform="translate(0 .857)"/>
        <path fill="#009B00" d="M126.959 16.223L117.762 23.74 126.959 27.6 136.152 23.74z" transform="translate(0 .857)"/>
        <path fill="#FFC100" d="M98.353 39.609L126.959 27.6 117.762 23.74z" transform="translate(0 .857)"/>
        <path fill="#000081" d="M136.152 23.74L126.959 27.6 139.723 32.96 136.152 23.74z" transform="translate(0 .857)"/>
    </g>
</svg>
